<mxfile host="65bd71144e">
    <diagram name="Page-1" id="QbVM-qhq_BF2LXNoguQ5">
        <mxGraphModel dx="1012" dy="593" grid="1" gridSize="10" guides="1" tooltips="1" connect="1" arrows="1" fold="1" page="1" pageScale="1" pageWidth="850" pageHeight="1100" math="0" shadow="0">
            <root>
                <mxCell id="0"/>
                <mxCell id="1" parent="0"/>
                <mxCell id="98" style="edgeStyle=orthogonalEdgeStyle;rounded=0;orthogonalLoop=1;jettySize=auto;html=1;startArrow=classic;startFill=1;" edge="1" parent="1" source="100" target="105">
                    <mxGeometry relative="1" as="geometry"/>
                </mxCell>
                <mxCell id="99" style="edgeStyle=orthogonalEdgeStyle;rounded=0;orthogonalLoop=1;jettySize=auto;html=1;entryX=0.5;entryY=0;entryDx=0;entryDy=0;" edge="1" parent="1" source="100" target="111">
                    <mxGeometry relative="1" as="geometry"/>
                </mxCell>
                <mxCell id="100" value="&lt;span style=&quot;font-size: 18px;&quot;&gt;Root Aggregator&lt;/span&gt;" style="rounded=1;whiteSpace=wrap;html=1;fillColor=#FFFFFF;strokeColor=default;fontStyle=0;fontFamily=CMU Sans Serif;strokeWidth=1;align=center;verticalAlign=middle;fontColor=#000000;" vertex="1" parent="1">
                    <mxGeometry x="250" y="250" width="144" height="30" as="geometry"/>
                </mxCell>
                <mxCell id="101" value="&lt;span style=&quot;font-size: 18px;&quot;&gt;Learner 1&lt;/span&gt;" style="rounded=1;whiteSpace=wrap;html=1;fillColor=#FFFFFF;strokeColor=#000000;fontStyle=0;fontFamily=CMU Sans Serif;strokeWidth=1;align=center;verticalAlign=middle;fontColor=#000000;" vertex="1" parent="1">
                    <mxGeometry x="50" y="390" width="100" height="30" as="geometry"/>
                </mxCell>
                <mxCell id="102" value="&lt;font face=&quot;CMU Sans Serif&quot; style=&quot;font-size: 20px;&quot;&gt;...&lt;/font&gt;" style="text;html=1;align=center;verticalAlign=middle;whiteSpace=wrap;rounded=0;" vertex="1" parent="1">
                    <mxGeometry x="290" y="320" width="60" height="30" as="geometry"/>
                </mxCell>
                <mxCell id="103" style="edgeStyle=orthogonalEdgeStyle;rounded=0;orthogonalLoop=1;jettySize=auto;html=1;startArrow=classic;startFill=1;" edge="1" parent="1" source="105" target="101">
                    <mxGeometry relative="1" as="geometry"/>
                </mxCell>
                <mxCell id="104" style="edgeStyle=orthogonalEdgeStyle;rounded=0;orthogonalLoop=1;jettySize=auto;html=1;entryX=0.5;entryY=0;entryDx=0;entryDy=0;" edge="1" parent="1" source="105" target="106">
                    <mxGeometry relative="1" as="geometry"/>
                </mxCell>
                <mxCell id="105" value="&lt;span style=&quot;font-size: 18px;&quot;&gt;Intermediate Aggregator A&lt;/span&gt;" style="rounded=1;whiteSpace=wrap;html=1;fillColor=#FFFFFF;strokeColor=default;fontStyle=0;fontFamily=CMU Sans Serif;strokeWidth=1;align=center;verticalAlign=middle;fontColor=#000000;" vertex="1" parent="1">
                    <mxGeometry x="60" y="320" width="220" height="30" as="geometry"/>
                </mxCell>
                <mxCell id="106" value="&lt;span style=&quot;font-size: 18px;&quot;&gt;Learner X&lt;/span&gt;" style="rounded=1;whiteSpace=wrap;html=1;fillColor=#FFFFFF;strokeColor=#000000;fontStyle=0;fontFamily=CMU Sans Serif;strokeWidth=1;align=center;verticalAlign=middle;fontColor=#000000;" vertex="1" parent="1">
                    <mxGeometry x="190" y="390" width="100" height="30" as="geometry"/>
                </mxCell>
                <mxCell id="107" value="&lt;font face=&quot;CMU Sans Serif&quot; style=&quot;font-size: 20px;&quot;&gt;...&lt;/font&gt;" style="text;html=1;align=center;verticalAlign=middle;whiteSpace=wrap;rounded=0;" vertex="1" parent="1">
                    <mxGeometry x="140" y="390" width="60" height="30" as="geometry"/>
                </mxCell>
                <mxCell id="108" value="&lt;span style=&quot;font-size: 18px;&quot;&gt;Learner Y&lt;/span&gt;" style="rounded=1;whiteSpace=wrap;html=1;fillColor=#FFFFFF;strokeColor=#000000;fontStyle=0;fontFamily=CMU Sans Serif;strokeWidth=1;align=center;verticalAlign=middle;fontColor=#000000;" vertex="1" parent="1">
                    <mxGeometry x="352" y="390" width="100" height="30" as="geometry"/>
                </mxCell>
                <mxCell id="109" style="edgeStyle=orthogonalEdgeStyle;rounded=0;orthogonalLoop=1;jettySize=auto;html=1;startArrow=classic;startFill=1;" edge="1" parent="1" source="111" target="108">
                    <mxGeometry relative="1" as="geometry"/>
                </mxCell>
                <mxCell id="110" style="edgeStyle=orthogonalEdgeStyle;rounded=0;orthogonalLoop=1;jettySize=auto;html=1;entryX=0.5;entryY=0;entryDx=0;entryDy=0;" edge="1" parent="1" source="111" target="112">
                    <mxGeometry relative="1" as="geometry"/>
                </mxCell>
                <mxCell id="111" value="&lt;span style=&quot;font-size: 18px;&quot;&gt;Intermediate Aggregator N&lt;/span&gt;" style="rounded=1;whiteSpace=wrap;html=1;fillColor=#FFFFFF;strokeColor=default;fontStyle=0;fontFamily=CMU Sans Serif;strokeWidth=1;align=center;verticalAlign=middle;fontColor=#000000;" vertex="1" parent="1">
                    <mxGeometry x="362" y="320" width="220" height="30" as="geometry"/>
                </mxCell>
                <mxCell id="112" value="&lt;span style=&quot;font-size: 18px;&quot;&gt;Learner Z&lt;/span&gt;" style="rounded=1;whiteSpace=wrap;html=1;fillColor=#FFFFFF;strokeColor=#000000;fontStyle=0;fontFamily=CMU Sans Serif;strokeWidth=1;align=center;verticalAlign=middle;fontColor=#000000;" vertex="1" parent="1">
                    <mxGeometry x="492" y="390" width="100" height="30" as="geometry"/>
                </mxCell>
                <mxCell id="113" value="&lt;font face=&quot;CMU Sans Serif&quot; style=&quot;font-size: 20px;&quot;&gt;...&lt;/font&gt;" style="text;html=1;align=center;verticalAlign=middle;whiteSpace=wrap;rounded=0;" vertex="1" parent="1">
                    <mxGeometry x="442" y="390" width="60" height="30" as="geometry"/>
                </mxCell>
            </root>
        </mxGraphModel>
    </diagram>
</mxfile>
